<?xml version="1.0" standalone="no"?>
<!DOCTYPE svg PUBLIC "-//W3C//DTD SVG 20010904//EN"
 "http://www.w3.org/TR/2001/REC-SVG-20010904/DTD/svg10.dtd">
<svg version="1.0" xmlns="http://www.w3.org/2000/svg"
 width="512.000000pt" height="512.000000pt" viewBox="0 0 512.000000 512.000000"
 preserveAspectRatio="xMidYMid meet">
<metadata>
Created by potrace 1.14, written by Peter Selinger 2001-2017
</metadata>
<g transform="translate(0.000000,512.000000) scale(0.100000,-0.100000)"
fill="#000000" stroke="none">
<path d="M420 2560 l0 -1141 483 4 c265 2 500 8 522 12 147 28 290 99 379 190
120 122 178 288 169 486 -11 234 -141 416 -358 499 l-30 12 57 29 c101 51 202
164 241 270 25 67 28 84 28 184 1 176 -46 301 -150 406 -91 91 -210 146 -376
175 -22 4 -248 9 -502 11 l-463 4 0 -1141z m891 875 c113 -23 171 -52 227
-114 56 -64 81 -205 56 -313 -25 -105 -85 -178 -187 -227 -91 -43 -144 -49
-427 -51 l-255 -1 2 348 c1 191 2 354 2 361 1 18 490 15 582 -3z m43 -964
c201 -38 308 -170 310 -380 1 -139 -30 -220 -116 -304 -51 -49 -85 -67 -178
-97 -47 -14 -97 -17 -349 -16 l-294 1 -1 403 c-1 221 2 403 7 405 24 8 571 -2
621 -12z"/>
<path d="M2414 2560 l0 -1140 154 0 155 0 -7 648 c-3 356 -8 690 -11 742 -8
187 -15 423 -11 419 4 -4 187 -451 218 -534 10 -27 25 -63 32 -80 8 -16 28
-64 44 -105 17 -41 98 -241 180 -445 83 -203 165 -406 182 -450 17 -44 37 -93
44 -110 7 -16 18 -42 24 -57 l12 -28 118 0 118 0 26 68 c15 37 62 155 106 262
44 107 122 301 175 430 52 129 130 321 172 425 42 105 115 285 162 400 47 116
88 213 92 218 4 4 6 -16 5 -45 -2 -58 -10 -297 -20 -648 -5 -174 -9 -1031 -5
-1097 1 -18 297 -18 303 0 2 6 3 518 3 1137 l-1 1125 -199 0 -199 0 -322 -805
c-177 -443 -327 -816 -332 -830 -6 -14 -25 -61 -43 -105 -17 -44 -34 -83 -38
-88 -4 -4 -173 407 -375 913 l-368 920 -197 0 -197 0 0 -1140z"/>
</g>
</svg>
